<svg id="visual" viewBox="0 0 900 600" width="900" height="600" xmlns="http://www.w3.org/2000/svg" xmlns:xlink="http://www.w3.org/1999/xlink" version="1.1"><rect x="0" y="0" width="900" height="600" fill="#ffffff"></rect><path d="M0 544L9.3 542.3C18.7 540.7 37.3 537.3 56.2 533C75 528.7 94 523.3 112.8 522.8C131.7 522.3 150.3 526.7 169 527.7C187.7 528.7 206.3 526.3 225 529.3C243.7 532.3 262.3 540.7 281.2 547.8C300 555 319 561 337.8 555.7C356.7 550.3 375.3 533.7 394 530C412.7 526.3 431.3 535.7 450 538.5C468.7 541.3 487.3 537.7 506.2 534.2C525 530.7 544 527.3 562.8 532C581.7 536.7 600.3 549.3 619 554.3C637.7 559.3 656.3 556.7 675 550.8C693.7 545 712.3 536 731.2 529.7C750 523.3 769 519.7 787.8 518.8C806.7 518 825.3 520 844 523.7C862.7 527.3 881.3 532.7 890.7 535.3L900 538L900 601L890.7 601C881.3 601 862.7 601 844 601C825.3 601 806.7 601 787.8 601C769 601 750 601 731.2 601C712.3 601 693.7 601 675 601C656.3 601 637.7 601 619 601C600.3 601 581.7 601 562.8 601C544 601 525 601 506.2 601C487.3 601 468.7 601 450 601C431.3 601 412.7 601 394 601C375.3 601 356.7 601 337.8 601C319 601 300 601 281.2 601C262.3 601 243.7 601 225 601C206.3 601 187.7 601 169 601C150.3 601 131.7 601 112.8 601C94 601 75 601 56.2 601C37.3 601 18.7 601 9.3 601L0 601Z" fill="#0066FF" stroke-linecap="round" stroke-linejoin="miter"></path></svg>