<svg id="visual" viewBox="0 0 900 600" width="900" height="600" xmlns="http://www.w3.org/2000/svg" xmlns:xlink="http://www.w3.org/1999/xlink" version="1.1"><rect x="0" y="0" width="900" height="600" fill="#ffffff"></rect><path d="M0 40L13.7 45.2C27.3 50.3 54.7 60.7 82 60C109.3 59.3 136.7 47.7 163.8 45.7C191 43.7 218 51.3 245.2 58.7C272.3 66 299.7 73 327 76.5C354.3 80 381.7 80 409 74.5C436.3 69 463.7 58 491 61C518.3 64 545.7 81 573 89.2C600.3 97.3 627.7 96.7 654.8 94.7C682 92.7 709 89.3 736.2 77C763.3 64.7 790.7 43.3 818 35.3C845.3 27.3 872.7 32.7 886.3 35.3L900 38L900 0L886.3 0C872.7 0 845.3 0 818 0C790.7 0 763.3 0 736.2 0C709 0 682 0 654.8 0C627.7 0 600.3 0 573 0C545.7 0 518.3 0 491 0C463.7 0 436.3 0 409 0C381.7 0 354.3 0 327 0C299.7 0 272.3 0 245.2 0C218 0 191 0 163.8 0C136.7 0 109.3 0 82 0C54.7 0 27.3 0 13.7 0L0 0Z" fill="#0066FF" stroke-linecap="round" stroke-linejoin="miter"></path></svg>